<?xml version="1.0" encoding="UTF-8" standalone="no"?>
<!-- Created with Inkscape (http://www.inkscape.org/) -->

<svg
   xmlns:dc="http://purl.org/dc/elements/1.1/"
   xmlns:cc="http://creativecommons.org/ns#"
   xmlns:rdf="http://www.w3.org/1999/02/22-rdf-syntax-ns#"
   xmlns:svg="http://www.w3.org/2000/svg"
   xmlns="http://www.w3.org/2000/svg"
   xmlns:xlink="http://www.w3.org/1999/xlink"
   xmlns:sodipodi="http://sodipodi.sourceforge.net/DTD/sodipodi-0.dtd"
   xmlns:inkscape="http://www.inkscape.org/namespaces/inkscape"
   width="210mm"
   height="297mm"
   viewBox="0 0 210 297"
   version="1.1"
   id="svg8"
   inkscape:version="0.92.4 (5da689c313, 2019-01-14)"
   sodipodi:docname="backgrounds.svg">
  <defs
     id="defs2">
    <linearGradient
       inkscape:collect="always"
       id="linearGradient893">
      <stop
         style="stop-color:#aaaaff;stop-opacity:1;"
         offset="0"
         id="stop889" />
      <stop
         style="stop-color:#aaaaff;stop-opacity:0;"
         offset="1"
         id="stop891" />
    </linearGradient>
    <linearGradient
       inkscape:collect="always"
       xlink:href="#linearGradient893"
       id="linearGradient895"
       x1="-2876.4062"
       y1="1709.2062"
       x2="-1876.936"
       y2="709.73541"
       gradientUnits="userSpaceOnUse"
       gradientTransform="translate(-823.52098,-359.21025)" />
    <linearGradient
       inkscape:collect="always"
       xlink:href="#linearGradient893"
       id="linearGradient897"
       x1="-2763.084"
       y1="1606.5747"
       x2="-1814.4675"
       y2="643.09497"
       gradientUnits="userSpaceOnUse"
       gradientTransform="translate(-823.32378,-359.30325)" />
    <linearGradient
       inkscape:collect="always"
       xlink:href="#linearGradient893"
       id="linearGradient899"
       x1="-2555.8647"
       y1="1389.012"
       x2="-1688.4089"
       y2="525.83246"
       gradientUnits="userSpaceOnUse" />
    <linearGradient
       inkscape:collect="always"
       xlink:href="#linearGradient893"
       id="linearGradient1274"
       gradientUnits="userSpaceOnUse"
       x1="-2555.8647"
       y1="1389.012"
       x2="-1688.4089"
       y2="525.83246"
       gradientTransform="translate(-921.54533,-134.70384)" />
    <filter
       inkscape:label="Ripple"
       inkscape:menu="Distort"
       inkscape:menu-tooltip="Horizontal rippling of edges"
       height="1.3"
       y="-0.15000001"
       width="1.3"
       x="-0.15000001"
       style="color-interpolation-filters:sRGB"
       id="filter5586-7">
      <feTurbulence
         baseFrequency="0.05"
         numOctaves="5"
         type="fractalNoise"
         result="result91"
         id="feTurbulence5580-5" />
      <feDisplacementMap
         yChannelSelector="A"
         scale="25"
         result="result5"
         xChannelSelector="R"
         in="SourceGraphic"
         in2="result91"
         id="feDisplacementMap5582-5" />
      <feComposite
         in="SourceGraphic"
         operator="atop"
         in2="result5"
         id="feComposite5584-5"
         result="fbSourceGraphic" />
      <feColorMatrix
         result="fbSourceGraphicAlpha"
         in="fbSourceGraphic"
         values="0 0 0 -1 0 0 0 0 -1 0 0 0 0 -1 0 0 0 0 1 0"
         id="feColorMatrix5653" />
      <feGaussianBlur
         id="feGaussianBlur5655"
         stdDeviation="8.86328"
         result="blur"
         in="fbSourceGraphic" />
      <feComposite
         in2="blur"
         id="feComposite5657"
         in="fbSourceGraphic"
         operator="atop"
         result="composite1" />
      <feComposite
         in2="composite1"
         id="feComposite5659"
         operator="in"
         result="composite2" />
      <feComposite
         in2="composite2"
         id="feComposite5661"
         operator="in"
         result="fbSourceGraphic" />
      <feColorMatrix
         result="fbSourceGraphicAlpha"
         in="fbSourceGraphic"
         values="0 0 0 -1 0 0 0 0 -1 0 0 0 0 -1 0 0 0 0 1 0"
         id="feColorMatrix8183" />
      <feTurbulence
         id="feTurbulence8185"
         numOctaves="5"
         seed="0"
         type="fractalNoise"
         baseFrequency="0.1"
         result="result1" />
      <feGaussianBlur
         id="feGaussianBlur8187"
         stdDeviation="2"
         result="result2" />
      <feDisplacementMap
         in2="result2"
         id="feDisplacementMap8189"
         scale="50"
         yChannelSelector="B"
         xChannelSelector="R"
         in="fbSourceGraphic"
         result="fbSourceGraphic" />
      <feColorMatrix
         result="fbSourceGraphicAlpha"
         in="fbSourceGraphic"
         values="0 0 0 -1 0 0 0 0 -1 0 0 0 0 -1 0 0 0 0 1 0"
         id="feColorMatrix8207" />
      <feTurbulence
         id="feTurbulence8209"
         numOctaves="1"
         baseFrequency="0.002 0.107" />
      <feColorMatrix
         id="feColorMatrix8211"
         values="2 0 0 0 0 0 0 0 0 0 0 0 0 0 0 0 0 0 0.5 0.5"
         result="result91" />
      <feDisplacementMap
         in2="result91"
         id="feDisplacementMap8213"
         yChannelSelector="A"
         xChannelSelector="R"
         scale="14.3"
         in="fbSourceGraphic" />
    </filter>
    <filter
       inkscape:label="Ripple"
       inkscape:menu="Distort"
       inkscape:menu-tooltip="Horizontal rippling of edges"
       height="1.3"
       y="-0.15000001"
       width="1.3"
       x="-0.15000001"
       style="color-interpolation-filters:sRGB"
       id="filter5586">
      <feTurbulence
         baseFrequency="0.05"
         numOctaves="5"
         type="fractalNoise"
         result="result91"
         id="feTurbulence5580" />
      <feDisplacementMap
         yChannelSelector="A"
         scale="25"
         result="result5"
         xChannelSelector="R"
         in="SourceGraphic"
         in2="result91"
         id="feDisplacementMap5582" />
      <feComposite
         in="SourceGraphic"
         operator="atop"
         in2="result5"
         id="feComposite5584"
         result="fbSourceGraphic" />
      <feColorMatrix
         result="fbSourceGraphicAlpha"
         in="fbSourceGraphic"
         values="0 0 0 -1 0 0 0 0 -1 0 0 0 0 -1 0 0 0 0 1 0"
         id="feColorMatrix8191" />
      <feTurbulence
         id="feTurbulence8193"
         numOctaves="5"
         seed="0"
         type="fractalNoise"
         baseFrequency="0.1"
         result="result1" />
      <feGaussianBlur
         id="feGaussianBlur8195"
         stdDeviation="2"
         result="result2" />
      <feDisplacementMap
         in2="result2"
         id="feDisplacementMap8197"
         scale="50"
         yChannelSelector="B"
         xChannelSelector="R"
         in="fbSourceGraphic"
         result="fbSourceGraphic" />
      <feColorMatrix
         result="fbSourceGraphicAlpha"
         in="fbSourceGraphic"
         values="0 0 0 -1 0 0 0 0 -1 0 0 0 0 -1 0 0 0 0 1 0"
         id="feColorMatrix8215" />
      <feTurbulence
         id="feTurbulence8217"
         numOctaves="1"
         baseFrequency="0.002 0.107" />
      <feColorMatrix
         id="feColorMatrix8219"
         values="2 0 0 0 0 0 0 0 0 0 0 0 0 0 0 0 0 0 0.5 0.5"
         result="result91" />
      <feDisplacementMap
         in2="result91"
         id="feDisplacementMap8221"
         yChannelSelector="A"
         xChannelSelector="R"
         scale="14.3"
         in="fbSourceGraphic" />
    </filter>
    <filter
       inkscape:label="Ripple"
       inkscape:menu="Distort"
       inkscape:menu-tooltip="Horizontal rippling of edges"
       height="1.3"
       y="-0.15000001"
       width="1.3"
       x="-0.15000001"
       style="color-interpolation-filters:sRGB"
       id="filter5594">
      <feTurbulence
         baseFrequency="0.05"
         numOctaves="5"
         type="fractalNoise"
         result="result91"
         id="feTurbulence5588" />
      <feDisplacementMap
         yChannelSelector="A"
         scale="25"
         result="result5"
         xChannelSelector="R"
         in="SourceGraphic"
         in2="result91"
         id="feDisplacementMap5590" />
      <feComposite
         in="SourceGraphic"
         operator="atop"
         in2="result5"
         id="feComposite5592"
         result="fbSourceGraphic" />
      <feColorMatrix
         result="fbSourceGraphicAlpha"
         in="fbSourceGraphic"
         values="0 0 0 -1 0 0 0 0 -1 0 0 0 0 -1 0 0 0 0 1 0"
         id="feColorMatrix5643" />
      <feGaussianBlur
         id="feGaussianBlur5645"
         stdDeviation="8.86328"
         result="blur"
         in="fbSourceGraphic" />
      <feComposite
         in2="blur"
         id="feComposite5647"
         in="fbSourceGraphic"
         operator="atop"
         result="composite1" />
      <feComposite
         in2="composite1"
         id="feComposite5649"
         operator="in"
         result="composite2" />
      <feComposite
         in2="composite2"
         id="feComposite5651"
         operator="in"
         result="fbSourceGraphic" />
      <feColorMatrix
         result="fbSourceGraphicAlpha"
         in="fbSourceGraphic"
         values="0 0 0 -1 0 0 0 0 -1 0 0 0 0 -1 0 0 0 0 1 0"
         id="feColorMatrix8199" />
      <feTurbulence
         id="feTurbulence8201"
         numOctaves="5"
         seed="0"
         type="fractalNoise"
         baseFrequency="0.1"
         result="result1" />
      <feGaussianBlur
         id="feGaussianBlur8203"
         stdDeviation="2"
         result="result2" />
      <feDisplacementMap
         in2="result2"
         id="feDisplacementMap8205"
         scale="50"
         yChannelSelector="B"
         xChannelSelector="R"
         in="fbSourceGraphic"
         result="fbSourceGraphic" />
      <feColorMatrix
         result="fbSourceGraphicAlpha"
         in="fbSourceGraphic"
         values="0 0 0 -1 0 0 0 0 -1 0 0 0 0 -1 0 0 0 0 1 0"
         id="feColorMatrix8223" />
      <feTurbulence
         id="feTurbulence8225"
         numOctaves="1"
         baseFrequency="0.002 0.107" />
      <feColorMatrix
         id="feColorMatrix8227"
         values="2 0 0 0 0 0 0 0 0 0 0 0 0 0 0 0 0 0 0.5 0.5"
         result="result91" />
      <feDisplacementMap
         in2="result91"
         id="feDisplacementMap8229"
         yChannelSelector="A"
         xChannelSelector="R"
         scale="14.3"
         in="fbSourceGraphic" />
    </filter>
    <linearGradient
       inkscape:collect="always"
       xlink:href="#linearGradient893"
       id="linearGradient895-8"
       x1="-2876.4062"
       y1="1709.2062"
       x2="-1876.936"
       y2="709.73541"
       gradientUnits="userSpaceOnUse"
       gradientTransform="translate(-836.7738,-1824.4351)" />
    <linearGradient
       inkscape:collect="always"
       xlink:href="#linearGradient893"
       id="linearGradient897-4"
       x1="-2763.084"
       y1="1606.5747"
       x2="-1814.4675"
       y2="643.09497"
       gradientUnits="userSpaceOnUse"
       gradientTransform="translate(-836.5767,-1824.5281)" />
    <filter
       x="-0.25"
       width="1.5"
       y="-0.25"
       height="1.5"
       inkscape:menu-tooltip="Smooth rainbow colors slightly melted along the edges"
       inkscape:menu="Textures"
       inkscape:label="Melted Rainbow"
       style="color-interpolation-filters:sRGB;"
       id="filter8504">
      <feGaussianBlur
         result="result8"
         stdDeviation="5"
         id="feGaussianBlur8492" />
      <feTurbulence
         baseFrequency="0.015"
         numOctaves="2"
         type="fractalNoise"
         result="result7"
         seed="20"
         id="feTurbulence8494" />
      <feComposite
         in="SourceGraphic"
         operator="in"
         result="result6"
         in2="result8"
         id="feComposite8496" />
      <feComposite
         in="result6"
         operator="arithmetic"
         result="result2"
         in2="result7"
         k3="1"
         id="feComposite8498" />
      <feComposite
         in2="result6"
         operator="in"
         in="result2"
         result="fbSourceGraphic"
         id="feComposite8500" />
      <feComposite
         in2="fbSourceGraphic"
         in="fbSourceGraphic"
         k2="2.5"
         operator="arithmetic"
         id="feComposite8502" />
    </filter>
    <filter
       x="-0.25"
       width="1.5"
       y="-0.25"
       height="1.5"
       inkscape:menu-tooltip="Smooth rainbow colors slightly melted along the edges"
       inkscape:menu="Textures"
       inkscape:label="Melted Rainbow"
       style="color-interpolation-filters:sRGB;"
       id="filter8518">
      <feGaussianBlur
         result="result8"
         stdDeviation="5"
         id="feGaussianBlur8506" />
      <feTurbulence
         baseFrequency="0.015"
         numOctaves="2"
         type="fractalNoise"
         result="result7"
         seed="20"
         id="feTurbulence8508" />
      <feComposite
         in="SourceGraphic"
         operator="in"
         result="result6"
         in2="result8"
         id="feComposite8510" />
      <feComposite
         in="result6"
         operator="arithmetic"
         result="result2"
         in2="result7"
         k3="1"
         id="feComposite8512" />
      <feComposite
         in2="result6"
         operator="in"
         in="result2"
         result="fbSourceGraphic"
         id="feComposite8514" />
      <feComposite
         in2="fbSourceGraphic"
         in="fbSourceGraphic"
         k2="2.5"
         operator="arithmetic"
         id="feComposite8516" />
    </filter>
    <filter
       x="-0.25"
       width="1.5"
       y="-0.25"
       height="1.5"
       inkscape:menu-tooltip="Smooth rainbow colors slightly melted along the edges"
       inkscape:menu="Textures"
       inkscape:label="Melted Rainbow"
       style="color-interpolation-filters:sRGB;"
       id="filter8532">
      <feGaussianBlur
         result="result8"
         stdDeviation="5"
         id="feGaussianBlur8520" />
      <feTurbulence
         baseFrequency="0.015"
         numOctaves="2"
         type="fractalNoise"
         result="result7"
         seed="20"
         id="feTurbulence8522" />
      <feComposite
         in="SourceGraphic"
         operator="in"
         result="result6"
         in2="result8"
         id="feComposite8524" />
      <feComposite
         in="result6"
         operator="arithmetic"
         result="result2"
         in2="result7"
         k3="1"
         id="feComposite8526" />
      <feComposite
         in2="result6"
         operator="in"
         in="result2"
         result="fbSourceGraphic"
         id="feComposite8528" />
      <feComposite
         in2="fbSourceGraphic"
         in="fbSourceGraphic"
         k2="2.5"
         operator="arithmetic"
         id="feComposite8530" />
    </filter>
  </defs>
  <sodipodi:namedview
     id="base"
     pagecolor="#ffffff"
     bordercolor="#666666"
     borderopacity="1.0"
     inkscape:pageopacity="0.0"
     inkscape:pageshadow="2"
     inkscape:zoom="0.11313708"
     inkscape:cx="-5118.5024"
     inkscape:cy="-2204.7756"
     inkscape:document-units="mm"
     inkscape:current-layer="layer1"
     showgrid="false"
     showborder="false"
     inkscape:window-width="1920"
     inkscape:window-height="1057"
     inkscape:window-x="-8"
     inkscape:window-y="-8"
     inkscape:window-maximized="1" />
  <metadata
     id="metadata5">
    <rdf:RDF>
      <cc:Work
         rdf:about="">
        <dc:format>image/svg+xml</dc:format>
        <dc:type
           rdf:resource="http://purl.org/dc/dcmitype/StillImage" />
        <dc:title></dc:title>
      </cc:Work>
    </rdf:RDF>
  </metadata>
  <g
     inkscape:label="Ebene 1"
     inkscape:groupmode="layer"
     id="layer1">
    <path
       style="opacity:1;vector-effect:none;fill:url(#linearGradient897);fill-opacity:1;stroke:none;stroke-width:0.07000434;stroke-linecap:butt;stroke-linejoin:miter;stroke-miterlimit:4;stroke-dasharray:none;stroke-dashoffset:0;stroke-opacity:1"
       d="M -3699.9952,350.16755 V 1350.1676 h 1000.0004 V 350.16755 Z m 0.2651,0.26459 h 206.5811 a 49.973542,49.973542 0 0 0 -1.9336,13.6002 49.973542,49.973542 0 0 0 49.9736,49.97369 49.973542,49.973542 0 0 0 49.9737,-49.97369 49.973542,49.973542 0 0 0 -1.8986,-13.6002 h 463.4374 a 49.973542,49.973542 0 0 0 -0.8666,9.06714 49.973542,49.973542 0 0 0 49.9737,49.97318 49.973542,49.973542 0 0 0 49.9736,-49.97318 49.973542,49.973542 0 0 0 -0.8557,-9.06714 h 135.1117 v 164.76513 a 49.973542,49.973542 0 0 0 -21.6783,-5.01623 49.973542,49.973542 0 0 0 -49.9737,49.97369 49.973542,49.973542 0 0 0 49.9737,49.97369 49.973542,49.973542 0 0 0 21.6783,-4.99452 v 375.7007 a 49.973542,49.973542 0 0 0 -36.1415,-15.4895 49.973542,49.973542 0 0 0 -49.9732,49.9737 49.973542,49.973542 0 0 0 49.9732,49.9731 49.973542,49.973542 0 0 0 36.1415,-15.5463 v 300.1574 h -614.4582 a 49.973542,49.973542 0 0 0 -47.2803,-33.9814 49.973542,49.973542 0 0 0 -47.2948,33.9814 h -172.7371 a 49.973542,49.973542 0 0 0 40.3177,-48.9857 49.973542,49.973542 0 0 0 -49.9737,-49.9737 49.973542,49.973542 0 0 0 -49.9737,49.9737 49.973542,49.973542 0 0 0 40.1,48.9857 h -98.1702 v -339.0377 a 49.973542,49.973542 0 0 0 49.2175,-49.9468 49.973542,49.973542 0 0 0 -49.2175,-49.9355 V 791.9122 a 49.973542,49.973542 0 0 0 37.0221,16.4921 49.973542,49.973542 0 0 0 49.9732,-49.97378 49.973542,49.973542 0 0 0 -49.9732,-49.9737 49.973542,49.973542 0 0 0 -37.0221,16.492 V 492.28807 a 49.973542,49.973542 0 0 0 5.2885,0.29508 49.973542,49.973542 0 0 0 49.9737,-49.97318 49.973542,49.973542 0 0 0 -49.9737,-49.97369 49.973542,49.973542 0 0 0 -5.2885,0.33744 z m 411.7759,55.80382 a 49.973542,49.973542 0 0 0 -49.9732,49.9737 49.973542,49.973542 0 0 0 49.9732,49.97369 49.973542,49.973542 0 0 0 49.9732,-49.97369 49.973542,49.973542 0 0 0 -49.9732,-49.9737 z m 214.5771,13.60021 a 49.973542,49.973542 0 0 0 -49.9737,49.97369 49.973542,49.973542 0 0 0 49.9737,49.97369 49.973542,49.973542 0 0 0 49.9737,-49.97369 49.973542,49.973542 0 0 0 -49.9737,-49.97369 z m -433.6871,22.66683 a 49.973542,49.973542 0 0 0 -49.9737,49.97369 49.973542,49.973542 0 0 0 49.9737,49.97266 49.973542,49.973542 0 0 0 49.9734,-49.97266 49.973542,49.973542 0 0 0 -49.9734,-49.97369 z m 729.8633,241.77642 a 49.973542,49.973542 0 0 0 -49.9732,49.9737 49.973542,49.973542 0 0 0 49.9732,49.97328 49.973542,49.973542 0 0 0 49.9737,-49.97328 49.973542,49.973542 0 0 0 -49.9737,-49.9737 z m -781.2406,117.86628 a 49.973542,49.973542 0 0 0 -49.9737,49.9737 49.973542,49.973542 0 0 0 49.9737,49.9732 49.973542,49.973542 0 0 0 49.9731,-49.9732 49.973542,49.973542 0 0 0 -49.9731,-49.9737 z m -13.6002,223.6432 a 49.973542,49.973542 0 0 0 -49.9737,49.9737 49.973542,49.973542 0 0 0 49.9737,49.9737 49.973542,49.973542 0 0 0 49.9735,-49.9737 49.973542,49.973542 0 0 0 -49.9735,-49.9737 z m 173.7769,58.9334 a 49.973542,49.973542 0 0 0 -49.9738,49.9737 49.973542,49.973542 0 0 0 49.9738,49.9731 49.973542,49.973542 0 0 0 49.9737,-49.9731 49.973542,49.973542 0 0 0 -49.9737,-49.9737 z m 575.7313,93.6888 a 49.973542,49.973542 0 0 0 -49.9737,49.9732 49.973542,49.973542 0 0 0 49.9737,49.9732 49.973542,49.973542 0 0 0 49.9726,-49.9732 49.973542,49.973542 0 0 0 -49.9726,-49.9732 z m -370.2214,37.7771 a 49.973542,49.973542 0 0 0 -49.9731,49.9736 49.973542,49.973542 0 0 0 49.9731,49.9737 49.973542,49.973542 0 0 0 49.9737,-49.9737 49.973542,49.973542 0 0 0 -49.9737,-49.9736 z m 211.5546,24.1778 a 49.973542,49.973542 0 0 0 -49.9727,49.9737 49.973542,49.973542 0 0 0 49.9727,49.9737 49.973542,49.973542 0 0 0 49.9737,-49.9737 49.973542,49.973542 0 0 0 -49.9737,-49.9737 z"
       id="rect649"
       inkscape:connector-curvature="0"
       inkscape:export-xdpi="50.781845"
       inkscape:export-ydpi="50.781845" />
    <path
       style="opacity:1;vector-effect:none;fill:url(#linearGradient895);fill-opacity:1;stroke:none;stroke-width:0.07000434;stroke-linecap:butt;stroke-linejoin:miter;stroke-miterlimit:4;stroke-dasharray:none;stroke-dashoffset:0;stroke-opacity:1"
       d="m -3699.995,350.16755 v 42.56433 a 50.000001,50.000001 0 0 1 5.2917,-0.33796 50.000001,50.000001 0 0 1 50.0001,50.00004 50.000001,50.000001 0 0 1 -50.0001,50.00006 50.000001,50.000001 0 0 1 -5.2917,-0.29559 v 232.78423 a 50.000001,50.000001 0 0 1 37.0417,-16.5008 50.000001,50.000001 0 0 1 50,50 50.000001,50.000001 0 0 1 -50,50.00014 50.000001,50.000001 0 0 1 -37.0417,-16.5008 V 911.015 a 50.000001,50.000001 0 0 1 49.2441,49.9623 50.000001,50.000001 0 0 1 -49.2441,49.9732 v 339.217 h 98.2225 a 50.000001,50.000001 0 0 1 -40.1211,-49.0114 50.000001,50.000001 0 0 1 50,-50.0001 50.000001,50.000001 0 0 1 50.0001,50.0001 50.000001,50.000001 0 0 1 -40.3392,49.0114 h 172.8288 a 50.000001,50.000001 0 0 1 47.3196,-33.9994 50.000001,50.000001 0 0 1 47.3056,33.9994 h 614.7837 V 1049.851 a 50.000001,50.000001 0 0 1 -36.1607,15.5546 50.000001,50.000001 0 0 1 -50.0001,-49.9995 50.000001,50.000001 0 0 1 50.0001,-50.0001 50.000001,50.000001 0 0 1 36.1607,15.4978 V 605.0042 a 50.000001,50.000001 0 0 1 -21.6902,4.99711 50.000001,50.000001 0 0 1 -50.0002,-50.00005 50.000001,50.000001 0 0 1 50.0002,-50.00005 50.000001,50.000001 0 0 1 21.6902,5.01882 V 350.16755 h -135.1836 a 50.000001,50.000001 0 0 1 0.8563,9.0718 50.000001,50.000001 0 0 1 -50,50.00005 50.000001,50.000001 0 0 1 -50,-50.00005 50.000001,50.000001 0 0 1 0.8666,-9.0718 h -463.6828 a 50.000001,50.000001 0 0 1 1.8996,13.60744 50.000001,50.000001 0 0 1 -50,50.00005 50.000001,50.000001 0 0 1 -50.0001,-50.00005 50.000001,50.000001 0 0 1 1.9348,-13.60744 z m 411.994,55.83329 a 50.000001,50.000001 0 0 1 50,50.00004 50.000001,50.000001 0 0 1 -50,50.00006 50.000001,50.000001 0 0 1 -49.9995,-50.00006 50.000001,50.000001 0 0 1 49.9995,-50.00004 z m 214.6908,13.60744 a 50.000001,50.000001 0 0 1 50,50.00004 50.000001,50.000001 0 0 1 -50,50.00006 50.000001,50.000001 0 0 1 -50.0001,-50.00006 50.000001,50.000001 0 0 1 50.0001,-50.00004 z m -433.9167,22.67872 a 50.000001,50.000001 0 0 1 50.0001,50.00005 50.000001,50.000001 0 0 1 -50.0001,49.99953 50.000001,50.000001 0 0 1 -50,-49.99953 50.000001,50.000001 0 0 1 50,-50.00005 z m 730.2499,241.90456 a 50.000001,50.000001 0 0 1 50.0001,50.0001 50.000001,50.000001 0 0 1 -50.0001,50.00004 50.000001,50.000001 0 0 1 -50,-50.00004 50.000001,50.000001 0 0 1 50,-50.0001 z m -781.6545,117.92884 a 50.000001,50.000001 0 0 1 49.9995,50 50.000001,50.000001 0 0 1 -49.9995,49.9995 50.000001,50.000001 0 0 1 -50.0001,-49.9995 50.000001,50.000001 0 0 1 50.0001,-50 z m -13.6074,223.7615 a 50.000001,50.000001 0 0 1 50,50 50.000001,50.000001 0 0 1 -50,50.0001 50.000001,50.000001 0 0 1 -50.0001,-50.0001 50.000001,50.000001 0 0 1 50.0001,-50 z m 173.8689,58.9644 a 50.000001,50.000001 0 0 1 50.0001,50 50.000001,50.000001 0 0 1 -50.0001,50.0001 50.000001,50.000001 0 0 1 -50,-50.0001 50.000001,50.000001 0 0 1 50,-50 z m 576.036,93.7384 a 50.000001,50.000001 0 0 1 49.9995,49.9996 50.000001,50.000001 0 0 1 -49.9995,50 50.000001,50.000001 0 0 1 -49.9999,-50 50.000001,50.000001 0 0 1 49.9999,-49.9996 z m -370.417,37.7972 a 50.000001,50.000001 0 0 1 50,50 50.000001,50.000001 0 0 1 -50,50.0001 50.000001,50.000001 0 0 1 -49.9995,-50.0001 50.000001,50.000001 0 0 1 49.9995,-50 z m 211.6667,24.1908 a 50.000001,50.000001 0 0 1 50,50 50.000001,50.000001 0 0 1 -50,50.0001 50.000001,50.000001 0 0 1 -49.9995,-50.0001 50.000001,50.000001 0 0 1 49.9995,-50 z"
       id="rect10-5"
       inkscape:connector-curvature="0"
       inkscape:export-xdpi="50.781845"
       inkscape:export-ydpi="50.781845" />
    <path
       style="opacity:1;vector-effect:none;fill:#002b22;fill-opacity:1;stroke:none;stroke-width:0.07000434;stroke-linecap:butt;stroke-linejoin:miter;stroke-miterlimit:4;stroke-dasharray:none;stroke-dashoffset:0;stroke-opacity:1"
       d="m -3494.7532,350.16755 a 50,50 0 0 0 -1.5441,12.01992 50,50 0 0 0 8.6729,28.05927 50,50 0 0 1 -7.6146,-26.47177 50,50 0 0 1 1.9348,-13.60742 z m 560.0066,0 a 50,50 0 0 0 -0.634,7.4843 50,50 0 0 0 8.6728,28.05927 50,50 0 0 1 -7.6145,-26.47177 50,50 0 0 1 0.8666,-9.0718 z m 233.6932,0 v 163.26496 a 50,50 0 0 0 -21.6901,-5.0188 50,50 0 0 0 -50.0006,50.00003 50,50 0 0 0 8.6729,28.05927 50,50 0 0 1 -7.6145,-26.47177 50,50 0 0 1 50.0005,-50.00003 50,50 0 0 1 21.6902,5.0188 V 350.16755 Z m -994.7082,40.63887 a 50,50 0 0 0 -4.2334,0.26714 v 1.65831 a 50,50 0 0 1 5.2917,-0.33795 50,50 0 0 1 41.3267,21.94075 50,50 0 0 0 -42.385,-23.52825 z m 406.7023,13.60691 a 50,50 0 0 0 -49.9995,50.00006 50,50 0 0 0 8.6733,28.05977 50,50 0 0 1 -7.615,-26.47227 50,50 0 0 1 49.9995,-50.00006 50,50 0 0 1 41.3272,21.94128 50,50 0 0 0 -42.3855,-23.52878 z m 214.6908,13.60744 a 50,50 0 0 0 -50.0001,50.00003 50,50 0 0 0 8.6729,28.05927 50,50 0 0 1 -7.6146,-26.47177 50,50 0 0 1 50.0001,-50.00003 50,50 0 0 1 41.3272,21.94129 50,50 0 0 0 -42.3855,-23.52879 z m -433.9167,22.67871 a 50,50 0 0 0 -50.0001,50.00005 50,50 0 0 0 8.6729,28.05875 50,50 0 0 1 -7.6145,-26.47125 50,50 0 0 1 50,-50.00005 50,50 0 0 1 41.3267,21.94078 50,50 0 0 0 -42.385,-23.52828 z m 808.2902,164.30471 a 50,50 0 0 1 -1.0584,0.44855 V 979.3162 a 50,50 0 0 0 -36.1611,-15.4978 50,50 0 0 0 -50,50.0001 50,50 0 0 0 8.6728,28.0587 50,50 0 0 1 -7.6145,-26.4712 50,50 0 0 1 50.0006,-50.0001 50,50 0 0 1 36.1606,15.4978 z m -78.0407,77.59991 a 50,50 0 0 0 -50.0001,50.00003 50,50 0 0 0 8.6734,28.05927 50,50 0 0 1 -7.6145,-26.47177 50,50 0 0 1 50,-50.00003 50,50 0 0 1 41.3267,21.94078 50,50 0 0 0 -42.3855,-23.52828 z m -885.9759,24.19024 a 50,50 0 0 0 -35.9834,15.4399 v 2.64842 a 50,50 0 0 1 37.0417,-16.50082 50,50 0 0 1 41.3272,21.94132 50,50 0 0 0 -42.3855,-23.52882 z m 104.3218,93.73846 a 50,50 0 0 0 -50.0001,50 50,50 0 0 0 8.6729,28.0588 50,50 0 0 1 -7.6146,-26.4713 50,50 0 0 1 50.0001,-50 50,50 0 0 1 41.3256,21.9397 50,50 0 0 0 -42.3839,-23.5272 z m -140.3052,108.9634 v 1.5187 a 50,50 0 0 1 40.8265,22.3263 50,50 0 0 0 -40.8265,-23.845 z m 126.6977,114.7981 a 50,50 0 0 0 -50,50.0001 50,50 0 0 0 8.6723,28.0593 50,50 0 0 1 -7.614,-26.4718 50,50 0 0 1 50.0001,-50.0001 50,50 0 0 1 41.3282,21.9434 50,50 0 0 0 -42.3866,-23.5309 z m 873.3023,25.5566 a 50,50 0 0 1 -1.0584,1.0077 V 1348.58 h -614.3004 a 50,50 0 0 1 0.5751,1.5875 h 614.7837 z m -699.4333,33.4078 a 50,50 0 0 0 -50.0001,50 50,50 0 0 0 8.6729,28.0593 50,50 0 0 1 -7.6145,-26.4718 50,50 0 0 1 50,-50 50,50 0 0 1 41.3283,21.9434 50,50 0 0 0 -42.3866,-23.5309 z m 576.0356,93.7384 a 50,50 0 0 0 -49.9995,49.9996 50,50 0 0 0 8.6713,28.0567 50,50 0 0 1 -7.613,-26.4692 50,50 0 0 1 49.9996,-49.9996 50,50 0 0 1 41.3266,21.9413 50,50 0 0 0 -42.385,-23.5288 z m -370.4166,37.7972 a 50,50 0 0 0 -49.9995,50.0001 50,50 0 0 0 8.6733,28.0598 50,50 0 0 1 -7.615,-26.4723 50,50 0 0 1 49.9995,-50.0001 50,50 0 0 1 41.3282,21.9434 50,50 0 0 0 -42.3865,-23.5309 z m 211.6666,24.1908 a 50,50 0 0 0 -49.9995,50.0001 50,50 0 0 0 8.6723,28.0587 50,50 0 0 1 -7.6139,-26.4712 50,50 0 0 1 49.9995,-50.0001 50,50 0 0 1 41.3272,21.9413 50,50 0 0 0 -42.3856,-23.5288 z m -610.8092,10.5833 a 50,50 0 0 0 -50,50.0001 50,50 0 0 0 8.6925,28.0856 50,50 0 0 1 -7.6342,-26.4981 50,50 0 0 1 50.0001,-50.0001 50,50 0 0 1 41.3271,21.9413 50,50 0 0 0 -42.3855,-23.5288 z m 229.8093,65.0121 a 50,50 0 0 0 -47.3196,33.9995 h -165.9279 a 50,50 0 0 1 -5.8425,1.5875 h 172.8287 a 50,50 0 0 1 47.3196,-33.9995 50,50 0 0 1 41.2843,21.9754 50,50 0 0 0 -42.3426,-23.5629 z m -336.8524,33.9995 v 1.5875 h 98.2225 a 50,50 0 0 1 -5.8245,-1.5875 z"
       id="rect10-5-7"
       inkscape:connector-curvature="0" />
    <rect
       style="opacity:1;vector-effect:none;fill:#d7f4d7;fill-opacity:1;stroke:none;stroke-width:0.07000434;stroke-linecap:butt;stroke-linejoin:miter;stroke-miterlimit:4;stroke-dasharray:none;stroke-dashoffset:0;stroke-opacity:1;filter:url(#filter5594)"
       id="rect5574"
       width="1000"
       height="1000"
       x="-1874.2749"
       y="396.51059"
       inkscape:export-xdpi="50"
       inkscape:export-ydpi="50" />
    <circle
       style="opacity:1;vector-effect:none;fill:#d7f4e3;fill-opacity:1;stroke:none;stroke-width:0.12218992;stroke-linecap:butt;stroke-linejoin:miter;stroke-miterlimit:4;stroke-dasharray:none;stroke-dashoffset:0;stroke-opacity:1;filter:url(#filter5586)"
       id="path5578"
       cx="-1375.9285"
       cy="894.85693"
       r="500"
       inkscape:export-xdpi="50"
       inkscape:export-ydpi="50" />
    <circle
       style="opacity:1;vector-effect:none;fill:#d5ffe6;fill-opacity:1;stroke:none;stroke-width:0.12218992;stroke-linecap:butt;stroke-linejoin:miter;stroke-miterlimit:4;stroke-dasharray:none;stroke-dashoffset:0;stroke-opacity:1;filter:url(#filter5586-7)"
       id="path5578-6"
       cx="418.37241"
       cy="-151.138"
       r="500"
       transform="matrix(0.64491862,0,0,0.65238656,-1643.9214,987.76441)"
       inkscape:export-xdpi="50"
       inkscape:export-ydpi="50" />
    <path
       style="opacity:1;vector-effect:none;fill:url(#linearGradient897-4);fill-opacity:1;stroke:none;stroke-width:0.07000434;stroke-linecap:butt;stroke-linejoin:miter;stroke-miterlimit:4;stroke-dasharray:none;stroke-dashoffset:0;stroke-opacity:1;filter:url(#filter8504)"
       d="m -3713.2481,-1115.0573 v 1000.00009 h 1000.0004 V -1115.0573 Z m 0.2651,0.2646 h 206.5811 a 49.973542,49.973542 0 0 0 -1.9336,13.6002 49.973542,49.973542 0 0 0 49.9736,49.9737 49.973542,49.973542 0 0 0 49.9737,-49.9737 49.973542,49.973542 0 0 0 -1.8986,-13.6002 h 463.4374 a 49.973542,49.973542 0 0 0 -0.8666,9.0671 49.973542,49.973542 0 0 0 49.9737,49.9732 49.973542,49.973542 0 0 0 49.9736,-49.9732 49.973542,49.973542 0 0 0 -0.8557,-9.0671 h 135.1117 v 164.76511 a 49.973542,49.973542 0 0 0 -21.6783,-5.01623 49.973542,49.973542 0 0 0 -49.9737,49.97369 49.973542,49.973542 0 0 0 49.9737,49.97369 49.973542,49.973542 0 0 0 21.6783,-4.99452 v 375.7007 a 49.973542,49.973542 0 0 0 -36.1415,-15.4895 49.973542,49.973542 0 0 0 -49.9732,49.97371 49.973542,49.973542 0 0 0 49.9732,49.97309 49.973542,49.973542 0 0 0 36.1415,-15.54631 v 300.15741 h -614.4582 a 49.973542,49.973542 0 0 0 -47.2803,-33.98139 49.973542,49.973542 0 0 0 -47.2948,33.98139 h -172.7371 a 49.973542,49.973542 0 0 0 40.3177,-48.9857 49.973542,49.973542 0 0 0 -49.9737,-49.9737 49.973542,49.973542 0 0 0 -49.9737,49.9737 49.973542,49.973542 0 0 0 40.1,48.9857 h -98.1702 v -339.03769 a 49.973542,49.973542 0 0 0 49.2175,-49.9468 49.973542,49.973542 0 0 0 -49.2175,-49.9355 v -119.0708 a 49.973542,49.973542 0 0 0 37.0221,16.49208 49.973542,49.973542 0 0 0 49.9732,-49.97376 49.973542,49.973542 0 0 0 -49.9732,-49.9737 49.973542,49.973542 0 0 0 -37.0221,16.49201 v -232.66077 a 49.973542,49.973542 0 0 0 5.2885,0.29508 49.973542,49.973542 0 0 0 49.9737,-49.97319 49.973542,49.973542 0 0 0 -49.9737,-49.9737 49.973542,49.973542 0 0 0 -5.2885,0.3375 z m 411.7759,55.8038 a 49.973542,49.973542 0 0 0 -49.9732,49.9737 49.973542,49.973542 0 0 0 49.9732,49.97369 49.973542,49.973542 0 0 0 49.9732,-49.97369 49.973542,49.973542 0 0 0 -49.9732,-49.9737 z m 214.5771,13.6002 a 49.973542,49.973542 0 0 0 -49.9737,49.9737 49.973542,49.973542 0 0 0 49.9737,49.97369 49.973542,49.973542 0 0 0 49.9737,-49.97369 49.973542,49.973542 0 0 0 -49.9737,-49.9737 z m -433.6871,22.6668 a 49.973542,49.973542 0 0 0 -49.9737,49.97373 49.973542,49.973542 0 0 0 49.9737,49.97266 49.973542,49.973542 0 0 0 49.9734,-49.97266 49.973542,49.973542 0 0 0 -49.9734,-49.97373 z m 729.8633,241.77645 a 49.973542,49.973542 0 0 0 -49.9732,49.97371 49.973542,49.973542 0 0 0 49.9732,49.97328 49.973542,49.973542 0 0 0 49.9737,-49.97328 49.973542,49.973542 0 0 0 -49.9737,-49.97371 z m -781.2406,117.8663 a 49.973542,49.973542 0 0 0 -49.9737,49.9737 49.973542,49.973542 0 0 0 49.9737,49.97321 49.973542,49.973542 0 0 0 49.9731,-49.97321 49.973542,49.973542 0 0 0 -49.9731,-49.9737 z m -13.6002,223.64319 a 49.973542,49.973542 0 0 0 -49.9737,49.9737 49.973542,49.973542 0 0 0 49.9737,49.97371 49.973542,49.973542 0 0 0 49.9735,-49.97371 49.973542,49.973542 0 0 0 -49.9735,-49.9737 z m 173.7769,58.93342 a 49.973542,49.973542 0 0 0 -49.9738,49.97368 49.973542,49.973542 0 0 0 49.9738,49.9731 49.973542,49.973542 0 0 0 49.9737,-49.9731 49.973542,49.973542 0 0 0 -49.9737,-49.97368 z m 575.7313,93.6888 a 49.973542,49.973542 0 0 0 -49.9737,49.97318 49.973542,49.973542 0 0 0 49.9737,49.9732 49.973542,49.973542 0 0 0 49.9726,-49.9732 49.973542,49.973542 0 0 0 -49.9726,-49.97318 z m -370.2214,37.77708 a 49.973542,49.973542 0 0 0 -49.9731,49.9736 49.973542,49.973542 0 0 0 49.9731,49.9737 49.973542,49.973542 0 0 0 49.9737,-49.9737 49.973542,49.973542 0 0 0 -49.9737,-49.9736 z m 211.5546,24.17781 a 49.973542,49.973542 0 0 0 -49.9727,49.9737 49.973542,49.973542 0 0 0 49.9727,49.97371 49.973542,49.973542 0 0 0 49.9737,-49.97371 49.973542,49.973542 0 0 0 -49.9737,-49.9737 z"
       id="rect649-4"
       inkscape:connector-curvature="0"
       inkscape:export-xdpi="50.781845"
       inkscape:export-ydpi="50.781845" />
    <path
       style="opacity:1;vector-effect:none;fill:url(#linearGradient895-8);fill-opacity:1;stroke:none;stroke-width:0.07000434;stroke-linecap:butt;stroke-linejoin:miter;stroke-miterlimit:4;stroke-dasharray:none;stroke-dashoffset:0;stroke-opacity:1;filter:url(#filter8518)"
       d="m -3713.2479,-1115.0573 v 42.5643 a 50.000001,50.000001 0 0 1 5.2917,-0.3379 50.000001,50.000001 0 0 1 50.0001,50 50.000001,50.000001 0 0 1 -50.0001,50.00006 50.000001,50.000001 0 0 1 -5.2917,-0.29559 v 232.78423 a 50.000001,50.000001 0 0 1 37.0417,-16.50079 50.000001,50.000001 0 0 1 50,50.00001 50.000001,50.000001 0 0 1 -50,50.00014 50.000001,50.000001 0 0 1 -37.0417,-16.50082 v 119.1338 a 50.000001,50.000001 0 0 1 49.2441,49.9623 50.000001,50.000001 0 0 1 -49.2441,49.97321 v 339.217 h 98.2225 a 50.000001,50.000001 0 0 1 -40.1211,-49.01139 50.000001,50.000001 0 0 1 50,-50.00011 50.000001,50.000001 0 0 1 50.0001,50.00011 50.000001,50.000001 0 0 1 -40.3392,49.01139 h 172.8288 a 50.000001,50.000001 0 0 1 47.3196,-33.99941 50.000001,50.000001 0 0 1 47.3056,33.99941 h 614.7837 v -300.31651 a 50.000001,50.000001 0 0 1 -36.1607,15.55462 50.000001,50.000001 0 0 1 -50.0001,-49.9995 50.000001,50.000001 0 0 1 50.0001,-50.00011 50.000001,50.000001 0 0 1 36.1607,15.49781 v -375.89962 a 50.000001,50.000001 0 0 1 -21.6902,4.99711 50.000001,50.000001 0 0 1 -50.0002,-50.00005 50.000001,50.000001 0 0 1 50.0002,-50.00005 50.000001,50.000001 0 0 1 21.6902,5.01882 v -164.85247 h -135.1836 a 50.000001,50.000001 0 0 1 0.8563,9.0718 50.000001,50.000001 0 0 1 -50,50 50.000001,50.000001 0 0 1 -50,-50 50.000001,50.000001 0 0 1 0.8666,-9.0718 h -463.6828 a 50.000001,50.000001 0 0 1 1.8996,13.6074 50.000001,50.000001 0 0 1 -50,50.0001 50.000001,50.000001 0 0 1 -50.0001,-50.0001 50.000001,50.000001 0 0 1 1.9348,-13.6074 z m 411.994,55.8333 a 50.000001,50.000001 0 0 1 50,50 50.000001,50.000001 0 0 1 -50,50.00008 50.000001,50.000001 0 0 1 -49.9995,-50.00008 50.000001,50.000001 0 0 1 49.9995,-50 z m 214.6908,13.6074 a 50.000001,50.000001 0 0 1 50,50.00006 50.000001,50.000001 0 0 1 -50,50.00006 50.000001,50.000001 0 0 1 -50.0001,-50.00006 50.000001,50.000001 0 0 1 50.0001,-50.00006 z m -433.9167,22.6787 a 50.000001,50.000001 0 0 1 50.0001,50.00009 50.000001,50.000001 0 0 1 -50.0001,49.99953 50.000001,50.000001 0 0 1 -50,-49.99953 50.000001,50.000001 0 0 1 50,-50.00009 z m 730.2499,241.90461 a 50.000001,50.000001 0 0 1 50.0001,50.00009 50.000001,50.000001 0 0 1 -50.0001,50.00006 50.000001,50.000001 0 0 1 -50,-50.00006 50.000001,50.000001 0 0 1 50,-50.00009 z m -781.6545,117.92884 a 50.000001,50.000001 0 0 1 49.9995,50.00001 50.000001,50.000001 0 0 1 -49.9995,49.99948 50.000001,50.000001 0 0 1 -50.0001,-49.99948 50.000001,50.000001 0 0 1 50.0001,-50.00001 z m -13.6074,223.76149 a 50.000001,50.000001 0 0 1 50,50 50.000001,50.000001 0 0 1 -50,50.00012 50.000001,50.000001 0 0 1 -50.0001,-50.00012 50.000001,50.000001 0 0 1 50.0001,-50 z m 173.8689,58.9644 a 50.000001,50.000001 0 0 1 50.0001,50.00001 50.000001,50.000001 0 0 1 -50.0001,50.00011 50.000001,50.000001 0 0 1 -50,-50.00011 50.000001,50.000001 0 0 1 50,-50.00001 z m 576.036,93.73841 a 50.000001,50.000001 0 0 1 49.9995,49.99961 50.000001,50.000001 0 0 1 -49.9995,49.99998 50.000001,50.000001 0 0 1 -49.9999,-49.99998 50.000001,50.000001 0 0 1 49.9999,-49.99961 z m -370.417,37.79719 a 50.000001,50.000001 0 0 1 50,50 50.000001,50.000001 0 0 1 -50,50.00012 50.000001,50.000001 0 0 1 -49.9995,-50.00012 50.000001,50.000001 0 0 1 49.9995,-50 z m 211.6667,24.1908 a 50.000001,50.000001 0 0 1 50,50 50.000001,50.000001 0 0 1 -50,50.00012 50.000001,50.000001 0 0 1 -49.9995,-50.00012 50.000001,50.000001 0 0 1 49.9995,-50 z"
       id="rect10-5-2"
       inkscape:connector-curvature="0"
       inkscape:export-xdpi="50.781845"
       inkscape:export-ydpi="50.781845" />
    <path
       style="opacity:1;vector-effect:none;fill:#002b22;fill-opacity:1;stroke:none;stroke-width:0.07000434;stroke-linecap:butt;stroke-linejoin:miter;stroke-miterlimit:4;stroke-dasharray:none;stroke-dashoffset:0;stroke-opacity:1;filter:url(#filter8532)"
       d="m -3508.0061,-1115.0573 a 50.000001,50.000001 0 0 0 -1.5441,12.0199 50.000001,50.000001 0 0 0 8.6729,28.0593 50.000001,50.000001 0 0 1 -7.6146,-26.4718 50.000001,50.000001 0 0 1 1.9348,-13.6074 z m 560.0066,0 a 50.000001,50.000001 0 0 0 -0.634,7.4843 50.000001,50.000001 0 0 0 8.6728,28.0593 50.000001,50.000001 0 0 1 -7.6145,-26.4718 50.000001,50.000001 0 0 1 0.8666,-9.0718 z m 233.6932,0 v 163.26495 a 50.000001,50.000001 0 0 0 -21.6901,-5.0188 50.000001,50.000001 0 0 0 -50.0006,50.00003 50.000001,50.000001 0 0 0 8.6729,28.05927 50.000001,50.000001 0 0 1 -7.6145,-26.47177 50.000001,50.000001 0 0 1 50.0005,-50.00003 50.000001,50.000001 0 0 1 21.6902,5.0188 v -164.85245 z m -994.7082,40.6389 a 50.000001,50.000001 0 0 0 -4.2334,0.2671 v 1.6583 a 50.000001,50.000001 0 0 1 5.2917,-0.3379 50.000001,50.000001 0 0 1 41.3267,21.9407 50.000001,50.000001 0 0 0 -42.385,-23.5282 z m 406.7023,13.6069 a 50.000001,50.000001 0 0 0 -49.9995,50 50.000001,50.000001 0 0 0 8.6733,28.0598 50.000001,50.000001 0 0 1 -7.615,-26.4723 50.000001,50.000001 0 0 1 49.9995,-50 50.000001,50.000001 0 0 1 41.3272,21.9412 50.000001,50.000001 0 0 0 -42.3855,-23.5287 z m 214.6908,13.6074 a 50.000001,50.000001 0 0 0 -50.0001,50.00004 50.000001,50.000001 0 0 0 8.6729,28.05927 50.000001,50.000001 0 0 1 -7.6146,-26.47177 50.000001,50.000001 0 0 1 50.0001,-50.00004 50.000001,50.000001 0 0 1 41.3272,21.9413 50.000001,50.000001 0 0 0 -42.3855,-23.5288 z m -433.9167,22.6787 a 50.000001,50.000001 0 0 0 -50.0001,50.00007 50.000001,50.000001 0 0 0 8.6729,28.05875 50.000001,50.000001 0 0 1 -7.6145,-26.47125 50.000001,50.000001 0 0 1 50,-50.00007 50.000001,50.000001 0 0 1 41.3267,21.9408 50.000001,50.000001 0 0 0 -42.385,-23.5283 z m 808.2902,164.30473 a 50.000001,50.000001 0 0 1 -1.0584,0.44855 v 373.86347 a 50.000001,50.000001 0 0 0 -36.1611,-15.49781 50.000001,50.000001 0 0 0 -50,50.00011 50.000001,50.000001 0 0 0 8.6728,28.05869 50.000001,50.000001 0 0 1 -7.6145,-26.47119 50.000001,50.000001 0 0 1 50.0006,-50.00011 50.000001,50.000001 0 0 1 36.1606,15.49781 z m -78.0407,77.59991 a 50.000001,50.000001 0 0 0 -50.0001,50.00003 50.000001,50.000001 0 0 0 8.6734,28.05928 50.000001,50.000001 0 0 1 -7.6145,-26.47178 50.000001,50.000001 0 0 1 50,-50.00003 50.000001,50.000001 0 0 1 41.3267,21.94078 50.000001,50.000001 0 0 0 -42.3855,-23.52828 z m -885.9759,24.19024 a 50.000001,50.000001 0 0 0 -35.9834,15.4399 v 2.64842 a 50.000001,50.000001 0 0 1 37.0417,-16.50082 50.000001,50.000001 0 0 1 41.3272,21.94132 50.000001,50.000001 0 0 0 -42.3855,-23.52882 z m 104.3218,93.73847 a 50.000001,50.000001 0 0 0 -50.0001,50 50.000001,50.000001 0 0 0 8.6729,28.0588 50.000001,50.000001 0 0 1 -7.6146,-26.4713 50.000001,50.000001 0 0 1 50.0001,-50 50.000001,50.000001 0 0 1 41.3256,21.9397 50.000001,50.000001 0 0 0 -42.3839,-23.5272 z m -140.3052,108.9634 v 1.51869 a 50.000001,50.000001 0 0 1 40.8265,22.3263 50.000001,50.000001 0 0 0 -40.8265,-23.84499 z m 126.6977,114.79811 a 50.000001,50.000001 0 0 0 -50,50.00008 50.000001,50.000001 0 0 0 8.6723,28.0593 50.000001,50.000001 0 0 1 -7.614,-26.4718 50.000001,50.000001 0 0 1 50.0001,-50.00008 50.000001,50.000001 0 0 1 41.3282,21.94338 50.000001,50.000001 0 0 0 -42.3866,-23.53088 z m 873.3023,25.55658 a 50.000001,50.000001 0 0 1 -1.0584,1.00772 v 297.72139 h -614.3004 a 50.000001,50.000001 0 0 1 0.5751,1.5875 h 614.7837 z m -699.4333,33.4078 a 50.000001,50.000001 0 0 0 -50.0001,50 50.000001,50.000001 0 0 0 8.6729,28.05931 50.000001,50.000001 0 0 1 -7.6145,-26.47181 50.000001,50.000001 0 0 1 50,-50 50.000001,50.000001 0 0 1 41.3283,21.9434 50.000001,50.000001 0 0 0 -42.3866,-23.5309 z m 576.0356,93.73841 a 50.000001,50.000001 0 0 0 -49.9995,49.99961 50.000001,50.000001 0 0 0 8.6713,28.05668 50.000001,50.000001 0 0 1 -7.613,-26.46918 50.000001,50.000001 0 0 1 49.9996,-49.99961 50.000001,50.000001 0 0 1 41.3266,21.94131 50.000001,50.000001 0 0 0 -42.385,-23.52881 z m -370.4166,37.79721 a 50.000001,50.000001 0 0 0 -49.9995,50.00008 50.000001,50.000001 0 0 0 8.6733,28.05981 50.000001,50.000001 0 0 1 -7.615,-26.47231 50.000001,50.000001 0 0 1 49.9995,-50.00008 50.000001,50.000001 0 0 1 41.3282,21.9434 50.000001,50.000001 0 0 0 -42.3865,-23.5309 z m 211.6666,24.1908 a 50.000001,50.000001 0 0 0 -49.9995,50.00008 50.000001,50.000001 0 0 0 8.6723,28.05872 50.000001,50.000001 0 0 1 -7.6139,-26.47122 50.000001,50.000001 0 0 1 49.9995,-50.00008 50.000001,50.000001 0 0 1 41.3272,21.94129 50.000001,50.000001 0 0 0 -42.3856,-23.52879 z m -610.8092,10.58328 a 50.000001,50.000001 0 0 0 -50,50.00011 50.000001,50.000001 0 0 0 8.6925,28.0856 50.000001,50.000001 0 0 1 -7.6342,-26.4981 50.000001,50.000001 0 0 1 50.0001,-50.00011 50.000001,50.000001 0 0 1 41.3271,21.94131 50.000001,50.000001 0 0 0 -42.3855,-23.52881 z m 229.8093,65.01212 a 50.000001,50.000001 0 0 0 -47.3196,33.99949 h -165.9279 a 50.000001,50.000001 0 0 1 -5.8425,1.5875 h 172.8287 a 50.000001,50.000001 0 0 1 47.3196,-33.99949 50.000001,50.000001 0 0 1 41.2843,21.97539 50.000001,50.000001 0 0 0 -42.3426,-23.56289 z m -336.8524,33.99949 v 1.5875 h 98.2225 a 50.000001,50.000001 0 0 1 -5.8245,-1.5875 z"
       id="rect10-5-7-9"
       inkscape:connector-curvature="0" />
  </g>
</svg>
